<svg width="35" height="27" viewBox="0 0 35 27" fill="none" xmlns="http://www.w3.org/2000/svg">
<path d="M28.3377 23.1459H21.1042C20.7049 23.1459 20.3809 22.8218 20.3809 22.4226C20.3809 22.0233 20.7049 21.6992 21.1042 21.6992H28.3377C29.5342 21.6992 30.5078 20.7256 30.5078 19.5291V18.0824C30.5078 17.6831 30.8319 17.3591 31.2312 17.3591H32.6648C33.0641 17.3591 33.3882 17.035 33.3882 16.6357V7.95549C33.3882 7.5562 33.0641 7.23214 32.6648 7.23214H31.2312C30.8319 7.23214 30.5078 6.90808 30.5078 6.50879V5.06208C30.5078 3.86565 29.5342 2.89202 28.3377 2.89202H23.9976C23.5983 2.89202 23.2743 2.56796 23.2743 2.16867C23.2743 1.76937 23.5983 1.44531 23.9976 1.44531H28.3377C30.3313 1.44531 31.9545 3.06852 31.9545 5.06208V5.78543H32.6648C33.8613 5.78543 34.8349 6.75907 34.8349 7.95549V16.6357C34.8349 17.8322 33.8613 18.8058 32.6648 18.8058H31.9545V19.5291C31.9545 21.5227 30.3313 23.1459 28.3377 23.1459Z" fill="#FF4948"/>
<path d="M9.40359 23.1459H3.61677C1.6232 23.1459 0 21.5227 0 19.5291V5.06208C0 3.06852 1.6232 1.44531 3.61677 1.44531H13.7437C14.143 1.44531 14.4671 1.76937 14.4671 2.16867C14.4671 2.56796 14.143 2.89202 13.7437 2.89202H3.61677C2.42034 2.89202 1.44671 3.86565 1.44671 5.06208V19.5291C1.44671 20.7256 2.42034 21.6992 3.61677 21.6992H9.40359C9.80288 21.6992 10.1269 22.0233 10.1269 22.4226C10.1269 22.8218 9.80288 23.1459 9.40359 23.1459Z" fill="#FF4948"/>
<path d="M13.5218 26.0394C13.4075 26.0394 13.2904 26.0119 13.1833 25.9554C12.8723 25.7905 12.7247 25.4245 12.8361 25.0889L15.8655 15.9124H10.1901C9.92098 15.9124 9.67504 15.7634 9.54918 15.5247C9.42476 15.286 9.44212 14.9981 9.59547 14.7767L19.6154 0.309669C19.8121 0.0261146 20.1868 -0.0751549 20.4993 0.0579421C20.8161 0.196826 20.9912 0.539696 20.9174 0.876778L18.8804 10.1256H24.6571C24.932 10.1256 25.1837 10.2818 25.3067 10.5292C25.4282 10.7766 25.3979 11.0717 25.23 11.2902L14.0947 25.7572C13.9544 25.941 13.7403 26.0394 13.5218 26.0394ZM11.5717 14.4657H16.8666C17.0995 14.4657 17.3165 14.5771 17.4525 14.7652C17.5885 14.9532 17.6261 15.1948 17.5524 15.4162L15.5414 21.5054L23.1873 11.5723H17.9806C17.7621 11.5723 17.5538 11.4725 17.4164 11.3017C17.2789 11.131 17.2269 10.9068 17.2731 10.6927L18.7141 4.15212L11.5717 14.4657Z" fill="#FF4948"/>
</svg>
