<svg width="35" height="35" viewBox="0 0 35 35" fill="none" xmlns="http://www.w3.org/2000/svg">
<path d="M27.6722 23.2339L20.2181 17.5L27.6722 11.7661C28.2456 11.3223 28.5817 10.6384 28.5828 9.91327C28.5795 9.18818 28.2414 8.50527 27.6668 8.06299L17.7501 0.479678C17.7233 0.459307 17.6948 0.441191 17.6649 0.425537C17.2756 0.148818 16.8099 0.000136719 16.3322 0C15.0223 0.0475098 13.9883 1.12896 13.9994 2.43961V12.6442L9.7389 9.0423C9.49452 8.84406 9.18034 8.75294 8.8678 8.78965C8.55526 8.82636 8.27075 8.98769 8.07886 9.23713L6.65822 11.0845C6.27629 11.5849 6.35819 12.2976 6.84368 12.6983L12.6094 17.5L6.85133 22.2957C6.36051 22.6952 6.27513 23.4121 6.65822 23.9158L8.07893 25.7629C8.27205 26.014 8.55895 26.1758 8.87374 26.2111C9.18854 26.2464 9.50415 26.1522 9.74806 25.95L13.9995 22.3558V32.5604C13.9883 33.8711 15.0226 34.9526 16.3325 35C16.8094 34.9998 17.2746 34.8515 17.6635 34.5754C17.6939 34.5595 17.7229 34.5411 17.7501 34.5204L27.6668 26.937C28.2432 26.4962 28.5817 25.8124 28.5828 25.0868C28.5839 24.3612 28.2473 23.6764 27.6722 23.2339ZM26.9581 26.0102L17.1126 33.5391C17.0861 33.5536 17.0607 33.5701 17.0366 33.5884C16.8356 33.7456 16.588 33.8317 16.3328 33.8333C15.6714 33.7783 15.1634 33.2241 15.1661 32.5604V21.0988C15.1661 20.8718 15.0344 20.6653 14.8283 20.5697C14.6224 20.4742 14.3796 20.5068 14.2062 20.6534L9.00349 25.0515L7.59043 23.1984L13.8943 17.9484C14.0274 17.8375 14.1043 17.6732 14.1043 17.5001C14.1043 17.3269 14.0274 17.1626 13.8943 17.0518L7.58278 11.7958L8.99495 9.94096L14.2062 14.3467C14.3796 14.4933 14.6224 14.526 14.8283 14.4304C15.0343 14.3348 15.1661 14.1283 15.166 13.9012V2.43961C15.1633 1.77604 15.6711 1.22186 16.3324 1.16669C16.5878 1.16819 16.8354 1.25439 17.0365 1.41162C17.0603 1.4298 17.0854 1.44614 17.1117 1.46036L26.9581 8.98987C27.2463 9.21026 27.4156 9.55227 27.4161 9.91505C27.4166 10.2779 27.2483 10.6203 26.9607 10.8415L18.9057 17.0378C18.7622 17.1482 18.6781 17.319 18.6781 17.5001C18.6781 17.6812 18.7622 17.8519 18.9057 17.9624L26.9607 24.1586C27.2483 24.3798 27.4166 24.7222 27.4161 25.0851C27.4156 25.4478 27.2463 25.7898 26.9581 26.0102Z" fill="#FF4948"/>
<path d="M18.0834 14.5739C18.4056 14.5739 18.6667 14.3128 18.6667 13.9906V7.05467L22.4159 9.92173L20.0609 11.7333C19.8071 11.9302 19.7602 12.2953 19.9562 12.5499C20.1521 12.8046 20.517 12.8528 20.7724 12.6578L23.7301 10.3826C23.8739 10.272 23.958 10.1008 23.9577 9.91941C23.9574 9.73805 23.8728 9.56708 23.7287 9.45689L18.4377 5.4109C18.2614 5.27617 18.0239 5.25306 17.8249 5.35143C17.626 5.44973 17.5001 5.65242 17.5 5.87431V13.9906C17.5001 14.3128 17.7612 14.5739 18.0834 14.5739Z" fill="#FF4948"/>
<path d="M23.7301 24.6171L20.7724 22.3419C20.517 22.1469 20.152 22.1951 19.9561 22.4498C19.7602 22.7044 19.807 23.0695 20.0609 23.2665L22.4159 25.078L18.6666 27.945V21.0091C18.6666 20.6869 18.4055 20.4258 18.0833 20.4258C17.7611 20.4258 17.5 20.6869 17.5 21.0091V29.1253C17.5 29.3473 17.6259 29.55 17.8249 29.6483C18.0239 29.7466 18.2614 29.7235 18.4377 29.5887L23.7287 25.5428C23.8728 25.4326 23.9574 25.2617 23.9577 25.0802C23.958 24.8989 23.8738 24.7277 23.7301 24.6171Z" fill="#FF4948"/>
</svg>
