<svg width="309" height="356" viewBox="0 0 309 356" fill="none" xmlns="http://www.w3.org/2000/svg">
<path d="M82.9532 227.865C83.7126 230.19 83.7659 232.688 83.1062 235.042C82.4465 237.397 81.1034 239.504 79.2468 241.095C77.3902 242.687 75.1034 243.693 72.6754 243.985C70.2475 244.277 67.7873 243.843 65.606 242.737C63.4247 241.632 61.6202 239.904 60.4205 237.773C59.2208 235.642 58.6798 233.203 58.866 230.765C59.0521 228.326 59.957 225.998 61.4662 224.074C62.9755 222.149 65.0213 220.716 67.3451 219.954C68.8894 219.448 70.5183 219.251 72.1387 219.375C73.7591 219.498 75.3392 219.94 76.7887 220.675C78.2383 221.41 79.5288 222.423 80.5865 223.657C81.6443 224.891 82.4485 226.321 82.9532 227.865Z" fill="#FFDCDC"/>
<path d="M79.8796 224.503C79.4745 225.123 68.6085 217.903 57.1229 206.822C45.6373 195.742 36.6061 186.782 37.0112 186.258C37.4163 185.733 47.615 193.788 59.0053 204.844C70.3956 215.901 80.4038 223.884 79.8796 224.503Z" fill="#FFDCDC"/>
<path d="M54.5042 166.148C55.2191 166.148 54.7425 173.106 49.5239 179.516C44.3054 185.926 37.6094 187.904 37.4902 187.213C37.3711 186.522 42.7565 183.639 47.4031 177.681C52.0498 171.724 53.6702 165.981 54.5042 166.148Z" fill="#FFDCDC"/>
<path d="M63.1996 175.536C63.9383 175.536 63.7476 182.422 58.1955 188.308C52.6433 194.194 45.8044 194.933 45.8282 194.218C45.852 193.503 51.4281 191.716 56.2177 186.45C61.0073 181.183 62.4609 175.393 63.1996 175.536Z" fill="#FFDCDC"/>
<path d="M279.066 41.0926C279.452 42.2703 279.48 43.5359 279.147 44.7295C278.813 45.9231 278.134 46.9911 277.193 47.7984C276.253 48.6057 275.094 49.116 273.864 49.265C272.634 49.414 271.387 49.1948 270.281 48.6353C269.175 48.0757 268.26 47.2009 267.652 46.1214C267.043 45.0418 266.768 43.8061 266.862 42.5704C266.955 41.3346 267.413 40.1543 268.177 39.1787C268.941 38.2031 269.978 37.476 271.155 37.0893C271.938 36.8324 272.763 36.7321 273.584 36.7942C274.405 36.8564 275.206 37.0797 275.94 37.4515C276.675 37.8233 277.329 38.3362 277.866 38.961C278.402 39.5857 278.81 40.3101 279.066 41.0926Z" fill="#FFDCDC"/>
<path d="M277.663 39.4248C273.386 37.0413 269.497 34.0201 266.13 30.4651C262.503 27.2241 259.103 23.7368 255.955 20.028C256.217 19.7182 261.317 23.8645 267.083 29.5596C272.85 35.2548 277.782 39.0912 277.663 39.4248Z" fill="#FFDCDC"/>
<path d="M264.651 9.82835C264.561 12.3014 263.672 14.6788 262.117 16.6036C260.561 18.5285 258.424 19.897 256.025 20.5038C255.858 20.1225 258.693 18.6927 261.052 15.7379C263.412 12.7831 264.246 9.73303 264.651 9.82835Z" fill="#FFDCDC"/>
<path d="M269.084 14.596C269.465 14.596 269.37 18.075 266.558 21.0536C265.826 22.0148 264.876 22.7883 263.786 23.3103C262.697 23.8323 261.499 24.088 260.291 24.0561C260.291 23.651 263.127 22.7932 265.533 20.1243C267.94 17.4555 268.679 14.5007 269.084 14.596Z" fill="#FFDCDC"/>
<path d="M85.455 56.3925C83.4221 57.8021 81.0169 58.5773 78.5435 58.6202C76.0701 58.6631 73.6395 57.9717 71.559 56.6334C69.4785 55.2952 67.8413 53.3702 66.8546 51.1017C65.8679 48.8332 65.5759 46.3231 66.0155 43.8887C66.4551 41.4543 67.6066 39.2049 69.3244 37.4248C71.0421 35.6447 73.2491 34.4138 75.6663 33.8877C78.0835 33.3616 80.6024 33.564 82.9046 34.4693C85.2068 35.3745 87.1889 36.942 88.6005 38.9735C90.4886 41.702 91.2178 45.0679 90.6281 48.3332C90.0385 51.5984 88.1782 54.4967 85.455 56.3925Z" fill="#FFDCDC"/>
<path d="M87.8403 52.5312C86.6965 52.15 90.2232 39.3776 97.7293 25.0325C105.235 10.6874 111.574 -0.416905 112.622 0.0120176C113.671 0.44094 109.048 12.8082 101.613 26.9865C94.1788 41.1648 88.9841 52.9125 87.8403 52.5312Z" fill="#FFDCDC"/>
<path d="M144.385 25.1283C144.385 26.1291 133.924 26.01 123.344 19.0519C118.746 16.1995 115.033 12.1235 112.621 7.28031C110.834 3.44384 111.287 0.655855 111.811 0.632026C112.335 0.608197 113.121 2.82428 115.29 5.75526C118.166 9.59001 121.71 12.8753 125.751 15.4537C135.211 21.7446 144.695 23.8177 144.385 25.1283Z" fill="#FFDCDC"/>
<path d="M117.22 81.5306C115.185 82.9368 112.779 83.7083 110.306 83.7474C107.833 83.7866 105.403 83.0917 103.325 81.7506C101.247 80.4095 99.6124 78.4824 98.629 76.2128C97.6455 73.9432 97.357 71.4329 97.7997 68.9994C98.2425 66.5658 99.3967 64.3181 101.117 62.5403C102.836 60.7626 105.045 59.5346 107.462 59.0115C109.88 58.4884 112.398 58.6937 114.699 59.6015C117 60.5092 118.98 62.0787 120.389 64.1116C121.326 65.463 121.987 66.9859 122.335 68.5931C122.683 70.2003 122.71 71.8603 122.416 73.4782C122.122 75.096 121.511 76.6399 120.62 78.0216C119.728 79.4033 118.573 80.5957 117.22 81.5306Z" fill="#FFDCDC"/>
<path d="M119.628 77.6699C118.461 77.2887 122.011 64.5163 129.517 50.1712C137.024 35.8261 143.362 24.7218 144.411 25.1507C145.459 25.5796 140.812 37.9469 133.402 52.1252C125.991 66.3035 120.748 78.0512 119.628 77.6699Z" fill="#FFDCDC"/>
<path d="M140.811 32.8971C140.811 34.0409 130.922 34.5651 120.771 28.3934C110.62 22.2217 106.354 13.262 107.379 12.8092C108.403 12.3565 113.813 19.2669 123.011 24.7238C132.209 30.1806 140.93 31.6342 140.811 32.8971Z" fill="#FFDCDC"/>
<path d="M170.242 209.99C169.448 211.706 168.163 213.147 166.549 214.13C164.935 215.113 163.065 215.594 161.177 215.512C159.289 215.43 157.468 214.789 155.945 213.67C154.423 212.551 153.267 211.004 152.625 209.227C151.983 207.449 151.884 205.521 152.341 203.687C152.797 201.853 153.789 200.196 155.189 198.927C156.589 197.658 158.335 196.834 160.205 196.559C162.075 196.285 163.984 196.572 165.69 197.385C167.955 198.464 169.703 200.393 170.555 202.753C171.407 205.113 171.295 207.713 170.242 209.99Z" fill="#FFDCDC"/>
<path d="M170.431 206.561C169.525 206.752 167.023 197.03 166.451 184.782C165.879 172.533 165.832 162.835 166.666 162.716C167.5 162.597 169.192 172.462 169.716 184.591C170.24 196.72 171.217 206.371 170.431 206.561Z" fill="#FFDCDC"/>
<path d="M196.951 167.1C197.332 167.767 190.422 171.652 180.867 171.127C176.77 171.004 172.786 169.751 169.357 167.505C166.736 165.647 165.95 163.669 166.283 163.454C166.617 163.24 167.975 164.408 170.525 165.48C173.865 166.898 177.432 167.705 181.057 167.863C189.636 168.363 196.641 166.099 196.951 167.1Z" fill="#FFDCDC"/>
<path d="M200.622 214.376C199.829 216.091 198.544 217.532 196.93 218.515C195.316 219.499 193.446 219.98 191.558 219.898C189.67 219.816 187.849 219.175 186.326 218.056C184.803 216.936 183.648 215.39 183.006 213.612C182.364 211.835 182.265 209.907 182.722 208.073C183.178 206.239 184.17 204.582 185.57 203.313C186.97 202.044 188.716 201.22 190.586 200.945C192.456 200.67 194.365 200.958 196.071 201.771C198.336 202.85 200.084 204.779 200.936 207.138C201.788 209.498 201.676 212.099 200.622 214.376Z" fill="#FFDCDC"/>
<path d="M200.718 210.993C199.836 211.207 197.31 201.461 196.738 189.213C196.166 176.965 196.119 167.29 196.953 167.171C197.787 167.052 199.502 176.917 200.027 189.046C200.551 201.175 201.599 210.754 200.718 210.993Z" fill="#FFDCDC"/>
<path d="M197.571 173.534C198.048 174.249 191.709 178.3 182.725 178.3C173.742 178.3 167.499 173.892 168.023 173.201C168.547 172.51 174.695 174.964 182.773 175.012C190.851 175.059 197.166 172.653 197.571 173.534Z" fill="#FFDCDC"/>
<path d="M288.314 190.048C287.605 190.49 286.781 190.712 285.947 190.685C285.112 190.659 284.304 190.385 283.625 189.898C282.946 189.412 282.426 188.735 282.133 187.953C281.839 187.171 281.784 186.32 281.975 185.506C282.165 184.693 282.593 183.955 283.204 183.385C283.815 182.816 284.581 182.44 285.405 182.306C286.23 182.173 287.076 182.287 287.835 182.634C288.595 182.981 289.234 183.546 289.672 184.258C290.257 185.206 290.442 186.348 290.187 187.433C289.933 188.518 289.259 189.458 288.314 190.048Z" fill="#FFDCDC"/>
<path d="M289.173 188.808C288.792 188.665 290.246 184.423 292.986 179.705C294.46 176.773 296.293 174.035 298.443 171.556C298.824 171.746 297.013 175.797 294.273 180.444C292.821 183.376 291.115 186.175 289.173 188.808Z" fill="#FFDCDC"/>
<path d="M308.639 180.563C306.089 180.72 303.58 179.864 301.657 178.181C300.172 177.133 299.002 175.699 298.274 174.034C297.726 172.7 297.94 171.771 298.107 171.794C298.274 171.818 298.512 172.557 299.179 173.582C300.087 174.916 301.225 176.077 302.539 177.013C305.661 179.277 308.806 180.135 308.639 180.563Z" fill="#FFDCDC"/>
<path d="M298.559 199.078C297.849 199.514 297.025 199.729 296.192 199.697C295.359 199.665 294.555 199.387 293.88 198.898C293.205 198.409 292.69 197.731 292.4 196.949C292.11 196.168 292.058 195.318 292.251 194.507C292.444 193.696 292.873 192.96 293.483 192.393C294.094 191.826 294.858 191.452 295.681 191.319C296.504 191.186 297.348 191.299 298.106 191.646C298.864 191.992 299.503 192.555 299.941 193.264C300.234 193.736 300.43 194.261 300.518 194.809C300.607 195.357 300.586 195.918 300.458 196.458C300.329 196.998 300.096 197.508 299.77 197.957C299.444 198.407 299.033 198.788 298.559 199.078Z" fill="#FFDCDC"/>
<path d="M299.444 197.814C299.062 197.671 300.492 193.429 303.256 188.735C304.733 185.803 306.558 183.059 308.689 180.562C309.094 180.752 307.259 184.827 304.519 189.45C303.081 192.384 301.382 195.183 299.444 197.814Z" fill="#FFDCDC"/>
<path d="M307.355 183.113C307.355 183.494 303.995 183.494 300.683 181.254C297.37 179.014 296.107 175.916 296.465 175.773C296.822 175.63 298.514 178.156 301.517 180.039C304.519 181.921 307.426 182.684 307.355 183.113Z" fill="#FFDCDC"/>
<path d="M9.67949 340.911C8.61388 341.572 7.37618 341.902 6.12295 341.859C4.86973 341.816 3.65732 341.403 2.6391 340.671C1.62088 339.939 0.842622 338.922 0.402762 337.748C-0.0370975 336.573 -0.118775 335.295 0.168057 334.074C0.454888 332.853 1.09734 331.745 2.01414 330.89C2.93094 330.034 4.08088 329.47 5.31848 329.268C6.55609 329.066 7.82573 329.236 8.9668 329.756C10.1079 330.276 11.0691 331.123 11.7288 332.189C12.6126 333.618 12.8932 335.339 12.509 336.974C12.1247 338.609 11.107 340.025 9.67949 340.911Z" fill="#FFDCDC"/>
<path d="M10.9915 339.026C10.4196 338.811 12.5642 332.425 16.7105 325.396C20.8568 318.366 24.3835 312.885 24.8839 313.124C25.3843 313.362 22.7393 319.51 18.6169 326.468C14.4944 333.426 11.5634 339.24 10.9915 339.026Z" fill="#FFDCDC"/>
<path d="M40.3011 326.658C40.3011 327.182 34.9871 326.825 29.8162 323.036C27.5679 321.481 25.8012 319.326 24.7168 316.816C23.9066 314.815 24.1926 313.433 24.4547 313.433C24.7168 313.433 25.0742 314.576 26.0989 316.125C27.4456 318.134 29.1499 319.879 31.1269 321.272C35.7259 324.704 40.4679 325.991 40.3011 326.658Z" fill="#FFDCDC"/>
<path d="M25.073 354.445C24.0075 355.109 22.7688 355.441 21.5142 355.4C20.2595 355.359 19.0453 354.947 18.0255 354.215C17.0056 353.483 16.2261 352.464 15.7857 351.289C15.3453 350.113 15.2638 348.833 15.5517 347.611C15.8396 346.39 16.4839 345.281 17.4028 344.425C18.3217 343.57 19.4739 343.007 20.7132 342.807C21.9526 342.608 23.2233 342.78 24.3643 343.304C25.5053 343.827 26.4652 344.678 27.1222 345.747C27.9985 347.174 28.2749 348.889 27.891 350.519C27.507 352.148 26.4939 353.56 25.073 354.445Z" fill="#FFDCDC"/>
<path d="M26.4095 352.56C25.8376 352.346 27.9822 345.983 32.1285 338.93C36.2747 331.876 39.7776 326.42 40.3019 326.658C40.8261 326.896 38.1573 333.044 34.0348 340.026C29.9124 347.008 26.9576 352.775 26.4095 352.56Z" fill="#FFDCDC"/>
<path d="M38.2749 330.496C38.2749 331.068 33.2469 331.068 28.2666 327.684C23.2864 324.301 21.3801 319.654 21.9043 319.463C22.4286 319.273 25.002 322.895 29.5057 325.873C34.0094 328.852 38.3702 329.853 38.2749 330.496Z" fill="#FFDCDC"/>
</svg>
