<svg width="31" height="31" viewBox="0 0 31 31" fill="none" xmlns="http://www.w3.org/2000/svg">
<path d="M9.04102 23.2497C7.62018 23.2497 6.4706 24.4122 6.4706 25.833C6.4706 27.2538 7.62018 28.4163 9.04102 28.4163C10.4618 28.4163 11.6243 27.2538 11.6243 25.833C11.6243 24.4122 10.4618 23.2497 9.04102 23.2497ZM1.29102 2.58301V5.16634H3.87435L8.52435 14.9701L6.7806 18.1347C6.57393 18.4963 6.45768 18.9226 6.45768 19.3747C6.45768 20.7955 7.62018 21.958 9.04102 21.958H24.541V19.3747H9.58352C9.40268 19.3747 9.2606 19.2326 9.2606 19.0518L9.29935 18.8968L10.4619 16.7913H20.0848C21.0535 16.7913 21.906 16.2618 22.3452 15.4609L26.9693 7.07801C27.0727 6.89717 27.1244 6.67759 27.1244 6.45801C27.1244 5.74759 26.5431 5.16634 25.8327 5.16634H6.72893L5.51477 2.58301H1.29102ZM21.9577 23.2497C20.5368 23.2497 19.3873 24.4122 19.3873 25.833C19.3873 27.2538 20.5368 28.4163 21.9577 28.4163C23.3785 28.4163 24.541 27.2538 24.541 25.833C24.541 24.4122 23.3785 23.2497 21.9577 23.2497Z" fill="#716969"/>
</svg>
