<svg width="196" height="173" viewBox="0 0 196 173" fill="none" xmlns="http://www.w3.org/2000/svg">
<path d="M162.249 102.835C154.601 99.599 147.506 95.1863 141.222 89.7573C134.753 84.3566 129.199 77.9457 124.775 70.7726C123.668 68.9938 122.654 67.1593 121.735 65.2765L119.154 59.5372C118.42 57.5667 117.889 55.5186 117.248 53.5239C116.982 52.4999 116.606 51.5292 116.387 50.4931L115.911 47.4123C115.642 45.321 115.158 43.2609 115.07 41.1972L114.829 34.9011C114.805 32.8244 114.957 30.7493 115.282 28.6981L116.127 22.5674C115.922 30.7911 116.807 39.0056 118.759 46.9968C119.152 48.9732 119.697 50.9163 120.39 52.8084C121.072 54.6686 121.671 56.5995 122.428 58.4649L124.983 63.9127C125.878 65.7036 126.869 67.4451 127.951 69.1296C132.199 75.9902 137.295 82.2882 143.119 87.8746C146.038 90.7104 149.124 93.3689 152.361 95.836C155.51 98.3709 158.812 100.708 162.249 102.835Z" fill="#FBBFBF"/>
<path d="M151.896 136.001C140.677 131.177 130.251 124.685 120.972 116.745C111.499 108.896 103.359 99.5653 96.8681 89.115C93.6791 83.822 90.9574 78.2612 88.734 72.4956C86.5609 66.7469 84.9448 60.8028 83.9082 54.7452C81.911 42.6624 82.1534 30.3153 84.6231 18.3201C84.0865 24.3414 83.9542 30.3919 84.2268 36.4309C84.4522 42.4258 85.2087 48.389 86.4873 54.2503C89.0247 65.9229 93.5377 77.0763 99.8317 87.2289C106.161 97.3939 113.872 106.63 122.744 114.671C127.166 118.75 131.828 122.559 136.706 126.079C141.549 129.711 146.623 133.025 151.896 136.001Z" fill="#FBBFBF"/>
<path d="M137.225 165.555C123.23 159.539 110.225 151.441 98.6509 141.537C86.8348 131.746 76.6813 120.107 68.5842 107.072C64.6063 100.469 61.2114 93.5328 58.4379 86.341C55.7272 79.1702 53.7114 71.7557 52.4183 64.1996C49.9271 49.1278 50.2294 33.7263 53.31 18.7639C52.6408 26.2747 52.4756 33.8219 52.8158 41.3548C53.0969 48.8327 54.0405 56.271 55.6354 63.5823C58.8005 78.1424 64.4299 92.0549 72.2809 104.719C80.1756 117.399 89.7946 128.919 100.862 138.95C106.377 144.037 112.192 148.789 118.277 153.18C124.318 157.71 130.648 161.844 137.225 165.555Z" fill="#FBBFBF"/>
</svg>
