<svg width="193" height="31" viewBox="0 0 193 31" fill="none" xmlns="http://www.w3.org/2000/svg">
<path d="M14.2516 2.92705C14.551 2.00574 15.8544 2.00574 16.1538 2.92705L18.3914 9.81383C18.5253 10.2258 18.9092 10.5048 19.3425 10.5048L26.5837 10.5048C27.5524 10.5048 27.9552 11.7444 27.1714 12.3138L21.3132 16.5701C20.9627 16.8247 20.816 17.2761 20.9499 17.6881L23.1876 24.5749C23.4869 25.4962 22.4324 26.2623 21.6487 25.6929L15.7905 21.4367C15.44 21.182 14.9654 21.182 14.6149 21.4367L8.75668 25.6929C7.97296 26.2623 6.91848 25.4962 7.21784 24.5749L9.45548 17.6881C9.58936 17.2761 9.4427 16.8247 9.09221 16.5701L3.23397 12.3138C2.45026 11.7444 2.85303 10.5048 3.82176 10.5048L11.0629 10.5048C11.4962 10.5048 11.8801 10.2258 12.014 9.81383L14.2516 2.92705Z" fill="#FDAE38"/>
<path d="M54.6579 2.92705C54.9572 2.00574 56.2607 2.00574 56.56 2.92705L58.7977 9.81383C58.9315 10.2258 59.3155 10.5048 59.7487 10.5048L66.9899 10.5048C67.9586 10.5048 68.3614 11.7444 67.5777 12.3138L61.7194 16.5701C61.369 16.8247 61.2223 17.2761 61.3562 17.6881L63.5938 24.5749C63.8932 25.4962 62.8387 26.2623 62.055 25.6929L56.1967 21.4367C55.8463 21.182 55.3717 21.182 55.0212 21.4367L49.1629 25.6929C48.3792 26.2623 47.3247 25.4962 47.6241 24.5749L49.8617 17.6881C49.9956 17.2761 49.849 16.8247 49.4985 16.5701L43.6402 12.3138C42.8565 11.7444 43.2593 10.5048 44.228 10.5048L51.4692 10.5048C51.9024 10.5048 52.2864 10.2258 52.4202 9.81383L54.6579 2.92705Z" fill="#FDAE38"/>
<path d="M95.0622 2.92705C95.3615 2.00574 96.665 2.00574 96.9643 2.92705L99.202 9.81383C99.3358 10.2258 99.7198 10.5048 100.153 10.5048L107.394 10.5048C108.363 10.5048 108.766 11.7444 107.982 12.3138L102.124 16.5701C101.773 16.8247 101.627 17.2761 101.76 17.6881L103.998 24.5749C104.297 25.4962 103.243 26.2623 102.459 25.6929L96.601 21.4367C96.2505 21.182 95.776 21.182 95.4255 21.4367L89.5672 25.6929C88.7835 26.2623 87.729 25.4962 88.0284 24.5749L90.266 17.6881C90.3999 17.2761 90.2532 16.8247 89.9028 16.5701L84.0445 12.3138C83.2608 11.7444 83.6636 10.5048 84.6323 10.5048L91.8735 10.5048C92.3067 10.5048 92.6907 10.2258 92.8245 9.81383L95.0622 2.92705Z" fill="#FDAE38"/>
<path d="M135.466 2.92705C135.766 2.00574 137.069 2.00574 137.369 2.92705L139.606 9.81383C139.74 10.2258 140.124 10.5048 140.557 10.5048L147.798 10.5048C148.767 10.5048 149.17 11.7444 148.386 12.3138L142.528 16.5701C142.178 16.8247 142.031 17.2761 142.165 17.6881L144.402 24.5749C144.702 25.4962 143.647 26.2623 142.864 25.6929L137.005 21.4367C136.655 21.182 136.18 21.182 135.83 21.4367L129.972 25.6929C129.188 26.2623 128.133 25.4962 128.433 24.5749L130.67 17.6881C130.804 17.2761 130.658 16.8247 130.307 16.5701L124.449 12.3138C123.665 11.7444 124.068 10.5048 125.037 10.5048L132.278 10.5048C132.711 10.5048 133.095 10.2258 133.229 9.81383L135.466 2.92705Z" fill="#FDAE38"/>
<path d="M175.873 2.92705C176.172 2.00574 177.476 2.00574 177.775 2.92705L180.013 9.81383C180.146 10.2258 180.53 10.5048 180.964 10.5048L188.205 10.5048C189.173 10.5048 189.576 11.7444 188.793 12.3138L182.934 16.5701C182.584 16.8247 182.437 17.2761 182.571 17.6881L184.809 24.5749C185.108 25.4962 184.054 26.2623 183.27 25.6929L177.412 21.4367C177.061 21.182 176.586 21.182 176.236 21.4367L170.378 25.6929C169.594 26.2623 168.54 25.4962 168.839 24.5749L171.077 17.6881C171.21 17.2761 171.064 16.8247 170.713 16.5701L164.855 12.3138C164.071 11.7444 164.474 10.5048 165.443 10.5048L172.684 10.5048C173.117 10.5048 173.501 10.2258 173.635 9.81383L175.873 2.92705Z" fill="#FDAE38"/>
</svg>
