<svg width="813" height="633" viewBox="0 0 813 633" fill="none" xmlns="http://www.w3.org/2000/svg">
<g opacity="0.1">
<path d="M617.648 11.0069C617.648 11.0069 628.28 14.6916 624.689 17.1323C621.098 19.5731 609.176 50.9981 611.64 55.0817C614.105 59.1653 621.826 45.6941 626.332 50.1767C630.838 54.6592 624.29 65.6897 617.343 64.8683C610.396 64.0468 607.134 57.1235 608.777 48.44C610.42 39.7564 616.029 26.2148 616.733 23.2578C617.437 20.3007 614.269 18.7752 609.387 21.6149C604.506 24.4547 595.916 19.5731 593.452 14.2691C590.988 8.96515 593.053 -3.03913e-06 593.053 -3.03913e-06C593.053 -3.03913e-06 591.433 4.48257 599.577 6.52437C607.721 8.56617 614.809 9.78655 617.648 11.0069Z" fill="white"/>
<path d="M15.6492 188.809C20.9698 186.107 26.1334 183.106 31.1153 179.821C38.6253 174.798 42.8498 177.216 41.7702 180.548C40.6906 183.881 47.1445 207.514 56.7668 220C66.3891 232.485 65.4973 218.239 72.7492 215.775C80.0011 213.311 83.9205 220.469 78.3583 228.777C72.7962 237.085 60.2168 234.574 58.5505 229.481C56.8842 224.388 45.1028 202.069 41.6059 196.625C38.109 191.18 35.5274 191.485 29.1908 197.798C26.4862 200.654 23.1141 202.792 19.378 204.021C15.6418 205.25 11.6588 205.531 7.78708 204.839C7.78708 204.839 20.7654 229.716 24.7317 237.695C28.6979 245.675 31.9836 255.766 37.8273 255.555C43.6711 255.344 50.2659 243.821 54.9128 250.861C59.5596 257.902 45.6895 269.895 38.2263 266.492C30.7632 263.089 26.1868 247.458 20.6481 236.663C15.1094 225.867 -0.919886 197.422 0.0423493 193.362C1.00458 189.302 8.4677 193.48 15.6492 188.809Z" fill="white"/>
<path d="M166.134 236.662C169.896 234.748 173.547 232.625 177.071 230.302C182.398 226.758 185.309 228.471 184.604 230.818C183.9 233.165 188.406 249.898 195.212 258.723C202.019 267.547 201.385 257.479 206.524 255.742C211.664 254.005 214.41 259.075 210.467 264.942C206.525 270.809 197.653 269.026 196.386 265.435C192.867 257.472 188.87 249.729 184.417 242.248C181.929 238.446 180.098 238.61 175.616 243.069C173.698 245.08 171.312 246.585 168.67 247.449C166.029 248.313 163.214 248.51 160.478 248.021C160.478 248.021 169.655 265.599 172.471 271.208C175.287 276.817 177.587 283.999 181.859 283.858C186.13 283.717 190.636 275.503 193.922 280.572C197.207 285.642 187.397 294.044 182.187 291.626C176.977 289.209 173.668 278.179 169.772 270.504C165.876 262.83 154.517 242.764 155.198 239.994C155.878 237.225 160.995 239.971 166.134 236.662Z" fill="white"/>
<path d="M701.843 73.3818C705.586 71.4694 709.221 69.354 712.733 67.0451C718.061 63.4778 720.971 65.1911 720.267 67.538C719.563 69.8849 724.069 86.6183 730.875 95.4661C737.681 104.314 737.047 94.1987 742.187 92.462C747.326 90.7253 750.072 95.8181 746.129 101.662C742.187 107.506 733.315 105.745 732.048 102.155C728.529 94.1917 724.532 86.4485 720.079 78.9674C717.591 75.1654 715.761 75.3297 711.278 79.7888C709.381 81.7813 707.023 83.2756 704.411 84.1393C701.8 85.0031 699.015 85.2096 696.305 84.7407C696.305 84.7407 705.505 102.319 708.297 107.928C711.09 113.537 713.414 120.719 717.685 120.578C721.956 120.437 726.462 112.223 729.748 117.292C733.034 122.362 723.224 130.763 718.014 128.346C712.803 125.929 709.494 114.898 705.599 107.224C701.703 99.5497 690.344 79.4602 691.024 76.7143C691.705 73.9685 696.774 76.6909 701.843 73.3818Z" fill="white"/>
<path d="M234.744 65.509C234.744 65.509 246.854 69.7099 242.676 72.5497C238.499 75.3894 224.981 111.156 227.773 115.826C230.566 120.497 239.508 105.125 244.53 110.241C249.553 115.357 242.183 127.913 234.298 126.974C226.412 126.035 222.563 118.15 224.511 108.363C226.459 98.5767 232.89 82.7821 233.899 79.5199C234.908 76.2578 231.106 74.4037 225.52 77.6659C219.935 80.9281 210.172 75.319 207.379 69.2875C204.586 63.2559 206.91 53 206.91 53C206.91 53 205.055 58.1162 214.349 60.4397C223.643 62.7631 231.435 64.1243 234.744 65.509Z" fill="white"/>
<path d="M636.736 570.509C636.736 570.509 648.822 574.71 644.645 577.55C640.467 580.389 626.949 616.156 629.742 620.803C632.535 625.45 641.477 610.101 646.499 615.217C651.521 620.334 644.152 632.913 636.267 631.974C628.381 631.035 624.532 623.126 626.503 613.363C628.475 603.6 634.882 587.782 635.891 584.52C636.9 581.258 633.098 579.404 627.513 582.666C621.927 585.928 612.164 580.319 609.371 574.287C606.578 568.256 608.902 558 608.902 558C608.902 558 607.048 563.116 616.341 565.44C625.635 567.763 633.474 569.124 636.736 570.509Z" fill="white"/>
<path d="M196.362 496.886C196.362 496.886 208.472 501.087 204.271 503.927C200.07 506.766 186.599 542.533 189.392 547.227C192.185 551.921 201.009 536.525 206.149 541.641C211.288 546.757 203.802 559.313 195.893 558.375C187.984 557.436 184.276 549.55 186.13 539.764C187.984 529.977 194.508 514.182 195.517 510.92C196.526 507.658 192.725 505.804 187.139 509.066C181.553 512.328 171.767 506.719 168.974 500.688C166.181 494.656 168.528 484.4 168.528 484.4C168.528 484.4 166.65 489.517 175.968 491.84C185.285 494.163 193.1 495.595 196.362 496.886Z" fill="white"/>
<path d="M737.808 303.9C743.864 300.845 749.748 297.461 755.433 293.761C764.023 288.011 768.717 290.757 767.59 294.583C766.464 298.408 773.716 325.303 784.676 339.573C795.636 353.842 794.65 337.531 802.911 334.738C811.172 331.945 815.655 340.136 809.295 349.57C802.935 359.005 788.618 356.165 786.741 350.368C784.863 344.571 771.392 319.131 767.426 312.982C763.46 306.833 760.385 307.115 753.345 314.32C750.259 317.565 746.415 319.994 742.159 321.386C737.903 322.779 733.368 323.093 728.96 322.299C728.96 322.299 743.652 350.556 748.158 359.592C752.664 368.627 756.419 380.221 763.108 379.986C769.796 379.751 777.189 366.515 782.587 374.682C787.985 382.849 772.049 396.391 763.554 392.519C755.058 388.646 749.801 370.833 743.511 358.512C737.221 346.191 718.916 313.78 720.042 309.227C721.169 304.674 729.641 309.227 737.808 303.9Z" fill="white"/>
<path d="M9.64192 478.322C12.8724 476.679 16.0067 474.853 19.0295 472.854C23.606 469.803 26.0702 471.281 25.5069 473.3C24.9436 475.318 28.7691 489.728 34.6129 497.285C40.4566 504.842 39.9404 496.205 44.3291 494.703C48.7178 493.201 51.135 497.59 47.732 502.612C44.329 507.635 36.7251 506.133 35.7159 503.058C32.682 496.21 29.2416 489.548 25.4131 483.11C23.3009 479.848 21.705 479.988 17.8561 483.837C16.2092 485.565 14.1593 486.858 11.8903 487.599C9.62119 488.341 7.20368 488.507 4.85423 488.085C4.85423 488.085 12.7398 503.199 15.1571 508.01C17.5744 512.821 19.5458 519.017 23.1131 518.876C26.6804 518.736 30.6701 511.695 33.4864 516.06C36.3027 520.425 27.8773 527.63 23.3478 525.448C18.8183 523.265 16.0254 513.878 12.6694 507.306C9.3133 500.735 -0.449784 483.462 0.136939 480.998C0.723666 478.533 5.27669 481.162 9.64192 478.322Z" fill="white"/>
</g>
</svg>
