<svg width="33" height="33" viewBox="0 0 33 33" fill="none" xmlns="http://www.w3.org/2000/svg">
<g clip-path="url(#clip0_60_1933)">
<path d="M6.38784 8.55209C6.13615 8.3004 5.7281 8.30033 5.47635 8.55196C3.9664 10.0616 3.13477 12.0672 3.13477 14.1993C3.13477 16.3315 3.96634 18.337 5.47635 19.8467C5.60222 19.9725 5.7671 20.0354 5.93203 20.0354C6.09703 20.0354 6.26203 19.9724 6.38784 19.8465C6.63953 19.5948 6.63947 19.1867 6.38778 18.935C5.12134 17.6689 4.42389 15.9871 4.42389 14.1992C4.42389 12.4115 5.12134 10.7296 6.38778 9.46352C6.63947 9.2119 6.63953 8.80384 6.38784 8.55209Z" fill="#FF4948"/>
<path d="M24.3073 11.74C23.9514 11.74 23.6628 12.0286 23.6628 12.3845V13.3756H22.2094V6.51035C22.2094 3.36478 19.6474 0.805664 16.4984 0.805664C13.3504 0.805664 10.7893 3.36478 10.7893 6.51035V13.3756H9.33594V12.3846C9.33594 12.0287 9.04738 11.7401 8.69141 11.7401C8.33543 11.7401 8.04688 12.0287 8.04688 12.3846V16.187C8.04688 19.9726 10.5518 23.1845 13.9922 24.2543V27.7327H11.7627C10.5308 27.7327 9.52865 28.7335 9.52865 29.9635V31.3162C9.52865 31.8004 9.92349 32.1943 10.4089 32.1943H13.6044C13.9604 32.1943 14.2489 31.9057 14.2489 31.5498C14.2489 31.1939 13.9604 30.9053 13.6044 30.9053H10.8177V29.9635C10.8177 29.4442 11.2417 29.0218 11.7627 29.0218H21.236C21.7561 29.0218 22.1792 29.4443 22.1792 29.9635V30.9053H19.3926C19.0366 30.9053 18.748 31.1939 18.748 31.5498C18.748 31.9057 19.0366 32.1943 19.3926 32.1943H22.5899C23.0742 32.1943 23.4682 31.8004 23.4682 31.3162V29.9635C23.4682 28.7335 22.4668 27.7327 21.236 27.7327H19.0047V24.2544C22.4461 23.1848 24.9519 19.9728 24.9519 16.187V12.3846C24.9518 12.0286 24.6632 11.74 24.3073 11.74ZM12.0783 6.51035C12.0783 4.07563 14.0611 2.09473 16.4984 2.09473C18.9366 2.09473 20.9202 4.07556 20.9202 6.51035V8.64046H12.0783V6.51035ZM12.0783 9.92952H20.9203V11.6105H12.0783V9.92952ZM12.0783 12.8995H20.9203V16.187C20.9203 18.6217 18.9367 20.6026 16.4984 20.6026C14.0612 20.6026 12.0784 18.6217 12.0784 16.187V12.8995H12.0783ZM17.7156 27.7326H15.2812V24.5454C15.6788 24.603 16.0851 24.6334 16.4984 24.6334C16.9118 24.6334 17.3181 24.603 17.7157 24.5455V27.7326H17.7156ZM23.6628 16.187C23.6628 20.1335 20.4489 23.3443 16.4984 23.3443C12.549 23.3443 9.33594 20.1336 9.33594 16.187V14.6647H10.7893V16.187C10.7893 19.3325 13.3504 21.8916 16.4984 21.8916C19.6474 21.8916 22.2094 19.3325 22.2094 16.187V14.6647H23.6628V16.187Z" fill="#FF4948"/>
<path d="M29.7387 6.33704C29.4869 6.08535 29.0787 6.08567 28.8272 6.33742C28.5757 6.58924 28.5758 6.99736 28.8277 7.24898C30.6869 9.10658 31.7109 11.5751 31.7109 14.1997C31.7109 16.8243 30.6869 19.2928 28.8277 21.1504C28.5759 21.402 28.5757 21.8101 28.8273 22.062C28.9532 22.1879 29.1182 22.251 29.2832 22.251C29.4481 22.251 29.6129 22.188 29.7388 22.0624C31.8417 19.9612 33 17.1688 33 14.1997C33 11.2305 31.8417 8.43814 29.7387 6.33704Z" fill="#FF4948"/>
<path d="M27.522 8.55186C27.27 8.30023 26.862 8.30049 26.6104 8.55224C26.3589 8.80406 26.3591 9.21218 26.6108 9.4638C27.878 10.7299 28.5759 12.4116 28.5759 14.1994C28.5759 15.9871 27.878 17.6689 26.6108 18.935C26.3591 19.1866 26.3589 19.5947 26.6104 19.8466C26.7363 19.9725 26.9014 20.0355 27.0664 20.0355C27.2312 20.0355 27.396 19.9726 27.5219 19.8469C29.0328 18.3373 29.865 16.3317 29.865 14.1994C29.865 12.0671 29.0329 10.0615 27.522 8.55186Z" fill="#FF4948"/>
<path d="M1.28906 14.1997C1.28906 11.575 2.31258 9.10651 4.17102 7.24885C4.42277 6.99722 4.4229 6.58917 4.17121 6.33735C3.91952 6.08553 3.51147 6.08547 3.25972 6.33716C1.15764 8.43833 0 11.2306 0 14.1997C0 17.1688 1.15764 19.9612 3.25972 22.0622C3.38553 22.188 3.55046 22.251 3.71534 22.251C3.88034 22.251 4.04534 22.188 4.17121 22.062C4.42284 21.8103 4.42277 21.4022 4.17102 21.1505C2.31258 19.2929 1.28906 16.8244 1.28906 14.1997Z" fill="#FF4948"/>
<path d="M16.498 30.9053C16.1421 30.9053 15.8535 31.1939 15.8535 31.5498C15.8535 31.9057 16.1421 32.1943 16.498 32.1943H16.5017C16.8576 32.1943 17.1445 31.9057 17.1445 31.5498C17.1445 31.1939 16.854 30.9053 16.498 30.9053Z" fill="#FF4948"/>
</g>
<defs>
<clipPath id="clip0_60_1933">
<rect width="33" height="33" fill="white"/>
</clipPath>
</defs>
</svg>
