<svg width="81" height="92" viewBox="0 0 81 92" fill="none" xmlns="http://www.w3.org/2000/svg">
<path d="M15.6492 12.8093C20.9698 10.1069 26.1334 7.10592 31.1153 3.82071C38.6253 -1.20165 42.8498 1.21565 41.7702 4.54825C40.6906 7.88084 47.1445 31.5141 56.7668 43.9996C66.3891 56.4851 65.4973 42.2394 72.7492 39.7752C80.0011 37.311 83.9205 44.469 78.3583 52.777C72.7962 61.085 60.2168 58.5738 58.5505 53.4811C56.8842 48.3883 45.1028 26.0693 41.6059 20.6245C38.109 15.1797 35.5274 15.4848 29.1908 21.798C26.4862 24.6536 23.1141 26.7921 19.378 28.021C15.6418 29.25 11.6588 29.531 7.78708 28.8386C7.78708 28.8386 20.7654 53.7158 24.7317 61.6952C28.6979 69.6747 31.9836 79.7663 37.8273 79.5551C43.6711 79.3439 50.2659 67.8206 54.9128 74.8613C59.5596 81.902 45.6895 93.8947 38.2263 90.4917C30.7632 87.0887 26.1868 71.4583 20.6481 60.6626C15.1094 49.8668 -0.919886 21.4225 0.0423493 17.3623C1.00458 13.3022 8.4677 17.4797 15.6492 12.8093Z" fill="white"/>
</svg>
