<svg width="36" height="65" viewBox="0 0 36 65" fill="none" xmlns="http://www.w3.org/2000/svg">
<path d="M25.6483 11.0069C25.6483 11.0069 36.2798 14.6916 32.689 17.1323C29.0983 19.5731 17.176 50.9981 19.6403 55.0817C22.1045 59.1653 29.8258 45.6941 34.3318 50.1767C38.8379 54.6592 32.29 65.6897 25.3432 64.8683C18.3964 64.0468 15.1342 57.1235 16.777 48.44C18.4199 39.7564 24.029 26.2148 24.733 23.2578C25.4371 20.3007 22.2688 18.7752 17.3872 21.6149C12.5057 24.4547 3.91605 19.5731 1.4518 14.2691C-1.01244 8.96515 1.05284 -3.03913e-06 1.05284 -3.03913e-06C1.05284 -3.03913e-06 -0.566525 4.48257 7.57721 6.52437C15.7209 8.56617 22.8086 9.78655 25.6483 11.0069Z" fill="white"/>
</svg>
